<svg id="SvgjsSvg1027" width="288" height="288" xmlns="http://www.w3.org/2000/svg" version="1.1" xmlns:xlink="http://www.w3.org/1999/xlink" ><defs id="SvgjsDefs1028"></defs><g id="SvgjsG1029"><svg xmlns="http://www.w3.org/2000/svg" enable-background="new 0 0 64 64" viewBox="0 0 64 64" width="288" height="288"><circle cx="30.91" cy="32" r="30.74" fill="#ff576b" class="colorff576b svgShape"></circle><rect width=".75" height="1.45" x="16.37" y="48.29" fill="#e1e9ff" class="colore1e9ff svgShape"></rect><path fill="#e1e9ff" d="M37.58,51.17c-0.05,0.07-0.11,0.13-0.17,0.2c-0.24,0.24-0.57,0.38-0.93,0.38h-9.21
							c-0.45,0-0.85-0.22-1.09-0.57H37.58z" class="colore1e9ff svgShape"></path><path fill="#42c3fc" d="M56.99,51.17c-0.14,0.83-0.54,1.59-1.13,2.19c-0.79,0.77-1.82,1.2-2.91,1.2H10.8
							c-2.02,0-3.7-1.46-4.04-3.39h17.85c0.33,1.16,1.4,2.01,2.66,2.01h9.21c0.75,0,1.44-0.29,1.94-0.8
							c0.34-0.34,0.58-0.75,0.71-1.21H56.99z" class="color42c3fc svgShape"></path><rect width=".75" height="1.45" x="46.63" y="48.29" fill="#e1e9ff" class="colore1e9ff svgShape"></rect><path fill="#42c3fc" d="M53.26,27.65v18.67c0,0.3-0.24,0.54-0.55,0.54H11.03c-0.3,0-0.54-0.24-0.54-0.54V16.43
						c0-0.3,0.24-0.54,0.54-0.54h31.5c0.03,0.45,0.09,0.89,0.19,1.31H13.21c-0.82,0-1.48,0.66-1.48,1.48v25.38
						c0,0.82,0.66,1.48,1.48,1.48h37.31c0.83,0,1.49-0.66,1.49-1.48V27.65H53.26z" class="color42c3fc svgShape"></path><path fill="#ffc064" d="M60.52,18.22c-0.03-0.02-0.05-0.04-0.07-0.08c-0.09-0.13-0.14-0.28-0.14-0.43c0-0.06,0.01-0.13,0.03-0.2
						c0-0.01,0.01-0.03,0.01-0.04c0.21-0.75,0.31-1.51,0.31-2.29c0-0.8-0.11-1.58-0.32-2.31c-0.07-0.22-0.02-0.46,0.12-0.64
						c0.02-0.04,0.04-0.06,0.07-0.08c0.03-0.04,0.05-0.06,0.09-0.08l1.89-1.3l-1.28-2.22l-2.07,0.98c-0.05,0.02-0.11,0.04-0.17,0.05
						c-0.13,0.03-0.28,0.01-0.4-0.04c-0.01,0-0.03-0.01-0.04-0.02c-0.04-0.01-0.06-0.03-0.1-0.05c-0.04-0.02-0.08-0.05-0.12-0.09
						c-0.01-0.01-0.01-0.01-0.02-0.02c-1.09-1.12-2.43-1.91-3.92-2.29c-0.06-0.01-0.12-0.02-0.17-0.04
						c-0.01-0.01-0.02-0.01-0.02-0.01c-0.08-0.03-0.15-0.08-0.21-0.13c-0.07-0.06-0.13-0.14-0.16-0.23
						c-0.02-0.04-0.03-0.06-0.04-0.1c-0.02-0.06-0.03-0.13-0.03-0.19l-0.18-2.23h-2.55l-0.19,2.22c0,0.22-0.1,0.41-0.26,0.55
						c-0.05,0.05-0.12,0.09-0.19,0.12c-0.04,0.02-0.1,0.04-0.15,0.05h-0.01c-1.5,0.37-2.86,1.17-3.95,2.31
						c-0.04,0.04-0.09,0.08-0.14,0.11c-0.05,0.04-0.12,0.06-0.18,0.08c-0.06,0.02-0.13,0.03-0.2,0.03c-0.01,0-0.01,0-0.02,0
						c-0.04,0-0.09-0.01-0.13-0.02c-0.05-0.01-0.11-0.03-0.15-0.04l-2.07-0.98l-1.28,2.2l1.88,1.3c0.04,0.03,0.06,0.05,0.09,0.08
						c0.03,0.02,0.04,0.04,0.06,0.06c0.03,0.04,0.05,0.07,0.07,0.12c0.08,0.15,0.11,0.34,0.05,0.53c0,0.01,0,0.01-0.01,0.02
						c-0.21,0.75-0.31,1.54-0.31,2.3c0,0.8,0.11,1.58,0.31,2.3c0.01,0.01,0.01,0.01,0.01,0.02c0.02,0.07,0.03,0.13,0.03,0.21
						c0,0.15-0.04,0.31-0.14,0.43c-0.02,0.04-0.04,0.06-0.07,0.08c-0.03,0.04-0.05,0.06-0.09,0.08l-0.36,0.24l-1.53,1.06l1.28,2.21
						l1.98-0.93c0.07-0.04,0.15-0.08,0.23-0.09c0.04-0.01,0.09-0.02,0.13-0.02c0.01,0,0.02,0,0.02,0c0.06,0,0.13,0.01,0.2,0.03
						c0.13,0.04,0.23,0.1,0.32,0.19c1.08,1.14,2.46,1.94,3.97,2.33c0.01,0,0.03,0.01,0.04,0.01c0.12,0.03,0.22,0.09,0.31,0.17
						c0.02,0.01,0.03,0.03,0.05,0.04c0.02,0.01,0.03,0.03,0.04,0.04c0.03,0.03,0.04,0.06,0.06,0.1c0.02,0.03,0.04,0.05,0.04,0.08
						c0.02,0.04,0.03,0.1,0.04,0.16c0.01,0.01,0.01,0.03,0.01,0.04l0.19,2.28h2.55l0.2-2.29c0-0.01,0-0.03,0.01-0.04
						c0.01-0.05,0.02-0.11,0.05-0.16c0.01-0.03,0.02-0.05,0.04-0.08c0.09-0.17,0.25-0.31,0.46-0.35c0.01,0,0.03-0.01,0.04-0.01
						c1.52-0.38,2.89-1.18,3.97-2.31c0.09-0.09,0.2-0.15,0.32-0.19c0.06-0.02,0.13-0.03,0.2-0.03c0,0,0.01,0,0.02,0
						c0.04,0,0.1,0.01,0.14,0.02c0.07,0.02,0.15,0.04,0.22,0.09l1.98,0.93l1.28-2.2l-1.88-1.3C60.58,18.27,60.55,18.24,60.52,18.22z
						 M56.52,19.39c-1.13,1.12-2.62,1.74-4.22,1.74c-1.6,0-3.1-0.62-4.22-1.75c-1.12-1.13-1.74-2.63-1.74-4.22
						c0.01-3.29,2.68-5.95,5.96-5.95c0.01,0,0.01,0,0.01,0c1.6,0,3.09,0.62,4.22,1.75c1.12,1.12,1.74,2.62,1.74,4.22
						C58.26,16.77,57.64,18.27,56.52,19.39z" class="colorffc064 svgShape"></path><path fill="#e1e9ff" d="M50.36,27.65c-0.38,0-0.69-0.29-0.72-0.66l-0.21-2.44c-1.43-0.44-2.73-1.19-3.83-2.22l-2.21,1.04
					c-0.1,0.05-0.21,0.07-0.31,0.07c-0.25,0-0.49-0.13-0.63-0.36l-1.93-3.36c-0.19-0.32-0.1-0.74,0.21-0.95l0.18-0.13h-27.7
					l-0.04,25.42l37.36,0.05l0.05-16.46H50.36z M36.49,30.03l-2.57,2.56c-0.13,0.13-0.31,0.21-0.5,0.21c-0.05,0-0.11,0-0.16-0.02
					l-2.14-0.48c-0.04,0.16-0.1,0.31-0.17,0.47c0.07,0.22,0.08,0.44,0.04,0.66l1.2,1.2c0.13,0.13,0.2,0.3,0.21,0.47l0.22,3.7
					c0.03,0.4-0.27,0.74-0.67,0.76h-0.04c-0.38,0-0.7-0.3-0.72-0.67l-0.22-3.43l-0.62-0.62c-0.49,0.93-1.03,1.73-1.62,2.39
					l1.18,1.18c0.28,0.28,0.28,0.74,0,1.01l-3.49,3.49c-0.13,0.13-0.32,0.21-0.5,0.21c-0.19,0-0.37-0.07-0.51-0.21
					c-0.28-0.29-0.28-0.74,0-1.01l2.98-2.98l-0.69-0.69c-1.17,0.94-2.5,1.41-3.96,1.41c-1.01,0-2.08-0.22-3.22-0.66
					c-1.13-0.44-2.01-1.36-2.41-2.51c-0.93-2.72-0.66-5.03,0.84-6.91l-0.65-0.64l-2.98,2.98c-0.13,0.14-0.32,0.22-0.5,0.22
					c-0.19,0-0.37-0.07-0.51-0.22c-0.28-0.28-0.28-0.74,0-1.01l3.49-3.48c0.28-0.29,0.74-0.29,1.01,0l1.12,1.11
					c0.66-0.57,1.47-1.1,2.42-1.58l-0.6-0.6l-3.43-0.21c-0.4-0.03-0.69-0.37-0.67-0.76c0.03-0.4,0.37-0.7,0.76-0.67l3.7,0.22
					c0.17,0.01,0.34,0.09,0.47,0.21l1.19,1.19l0.01-0.01c0.31-0.13,0.66-0.13,0.96-0.03c0.06-0.03,0.13-0.05,0.19-0.07l-0.48-2.16
					c-0.05-0.23,0.02-0.49,0.19-0.66l2.56-2.56c0.29-0.28,0.74-0.28,1.02,0c0.28,0.28,0.28,0.74,0,1.01l-2.29,2.28l0.41,1.83
					c0.04-0.01,0.08-0.01,0.13-0.01c0.35-0.01,0.68,0.02,1.01,0.08c0.93-0.64,2.43-1.01,3.49-0.55l0.23-0.22
					c0.28-0.29,0.74-0.29,1.01,0c0.28,0.28,0.28,0.73,0,1.01l-0.24,0.24c0.46,1.1,0.02,2.6-0.66,3.52c0.04,0.28,0.05,0.56,0.04,0.84
					l1.82,0.41L35.47,29c0.29-0.28,0.74-0.28,1.02,0C36.77,29.29,36.77,29.74,36.49,30.03z" class="colore1e9ff svgShape"></path><path fill="#f2708c" d="M30.65 28.14c-.17-.26-.36-.51-.58-.75-.22-.23-.48-.44-.74-.62.51-.12 1-.1 1.22.13l.01.01C30.78 27.15 30.78 27.64 30.65 28.14zM29.23 32.96c-.17.25-.37.49-.59.7-.77.74-1.75 1.15-2.76 1.18-.98.03-1.89-.33-2.53-1.01-.65-.67-.96-1.58-.9-2.57.06-1.01.52-1.97 1.29-2.7.22-.21.45-.4.7-.55.58 1.3.48 2.66-.32 4.14-.15.27-.11.61.11.84.22.23.56.29.84.15C26.59 32.41 27.94 32.34 29.23 32.96z" class="colorf2708c svgShape"></path><path fill="#f2708c" d="M29.81 31.67c-1.19-.57-2.46-.71-3.77-.4.37-1.3.28-2.57-.25-3.8.05-.01.1-.02.15-.03.19-.04.38-.05.57-.05h.09c.95 0 1.81.35 2.43 1.01C29.86 29.26 30.11 30.49 29.81 31.67zM28.09 35.75c-.26.35-.53.66-.82.93-.02.01-.04.02-.05.04-.01.01-.03.03-.03.04-1.66 1.56-3.68 1.84-6.16.87-.75-.3-1.3-.87-1.56-1.63-.82-2.39-.55-4.31.85-5.87.04-.02.08-.05.12-.09.04-.04.08-.09.11-.14.31-.32.68-.63 1.1-.91-.37.67-.58 1.42-.64 2.19-.09 1.39.37 2.69 1.3 3.66.9.93 2.13 1.45 3.47 1.45h.13C26.68 36.26 27.41 36.08 28.09 35.75z" class="colorf2708c svgShape"></path><path d="M64.07,10.63l-1.93-3.36c-0.19-0.32-0.59-0.45-0.92-0.3l-2.24,1.05c-1.1-1.04-2.4-1.8-3.82-2.22l-0.2-2.44
			c-0.03-0.38-0.34-0.66-0.72-0.66h-3.86c-0.38,0-0.69,0.29-0.72,0.66L49.46,5.8c-1.42,0.42-2.73,1.18-3.83,2.22L43.4,6.95
			c-0.33-0.15-0.74-0.03-0.92,0.3l-1.93,3.35c-0.19,0.32-0.1,0.74,0.21,0.95l2.01,1.39c-0.12,0.5-0.19,1.01-0.22,1.51h-31.5
			c-1.09,0-1.98,0.89-1.98,1.98v29.89c0,1.09,0.89,1.98,1.98,1.98h3.91v1.45H5.98c-0.4,0-0.72,0.31-0.72,0.71
			c0,3.06,2.49,5.55,5.54,5.55h42.15c1.47,0,2.86-0.57,3.92-1.63c1.04-1.05,1.62-2.44,1.62-3.92c0-0.4-0.32-0.71-0.72-0.71h-8.96
			v-1.45h3.9c1.1,0,1.98-0.89,1.98-1.98V27.47c0.13-0.12,0.22-0.29,0.24-0.48l0.22-2.45c1.43-0.42,2.73-1.18,3.83-2.2l2.21,1.04
			c0.1,0.05,0.21,0.07,0.31,0.07c0.24,0,0.49-0.13,0.62-0.36l1.94-3.35c0.19-0.32,0.1-0.74-0.21-0.95l-2.01-1.39
			c0.17-0.73,0.25-1.46,0.25-2.22c0-0.75-0.08-1.5-0.25-2.21l2.02-1.39C64.17,11.36,64.26,10.95,64.07,10.63z M40.53,19.72
			l1.93,3.36c0.13,0.23,0.38,0.36,0.63,0.36c0.1,0,0.21-0.02,0.31-0.07l2.21-1.04c1.1,1.02,2.4,1.78,3.83,2.22l0.21,2.44
			c0.03,0.38,0.34,0.66,0.72,0.66h0.22l-0.05,16.46l-37.36-0.05l0.04-25.42h27.7l-0.18,0.13C40.43,18.98,40.34,19.39,40.53,19.72z
			 M56.99,51.17c-0.14,0.83-0.54,1.59-1.13,2.19c-0.79,0.77-1.82,1.2-2.91,1.2H10.8c-2.02,0-3.7-1.46-4.04-3.39h11.08h6.77
			c0.33,1.16,1.4,2.01,2.66,2.01h9.21c0.75,0,1.44-0.29,1.94-0.8c0.34-0.34,0.58-0.75,0.71-1.21h8.96H56.99z M16.37,49.75v-1.45
			h0.75v1.45H16.37z M25.26,49.75h-0.05h-6.65v-1.45h26.64v1.45h-6.66h-0.04H25.26z M37.58,51.17c-0.05,0.07-0.11,0.13-0.17,0.2
			c-0.24,0.24-0.57,0.38-0.93,0.38h-9.21c-0.45,0-0.85-0.22-1.09-0.57H37.58z M46.63,49.75v-1.45h0.75v1.45H46.63z M52.71,46.85
			H11.03c-0.3,0-0.54-0.24-0.54-0.54V16.43c0-0.3,0.24-0.54,0.54-0.54h31.5c0.03,0.45,0.09,0.89,0.19,1.31H13.21
			c-0.82,0-1.48,0.66-1.48,1.48v25.38c0,0.82,0.66,1.48,1.48,1.48h37.31c0.83,0,1.49-0.66,1.49-1.48V27.65h1.24v18.67
			C53.26,46.61,53.01,46.85,52.71,46.85z M60.61,12.07c-0.04,0.02-0.06,0.05-0.09,0.08c-0.03,0.03-0.05,0.05-0.07,0.08
			c-0.13,0.18-0.19,0.41-0.12,0.64c0.22,0.73,0.32,1.51,0.32,2.31c0,0.78-0.11,1.54-0.31,2.29c0,0.01-0.01,0.03-0.01,0.04
			c-0.02,0.06-0.03,0.13-0.03,0.2c0,0.15,0.05,0.31,0.14,0.43c0.02,0.03,0.04,0.05,0.07,0.08c0.03,0.03,0.05,0.05,0.09,0.08
			l1.88,1.3l-1.28,2.2l-1.98-0.93c-0.07-0.05-0.15-0.07-0.22-0.09c-0.05-0.01-0.1-0.02-0.14-0.02c-0.01,0-0.02,0-0.02,0
			c-0.06,0-0.13,0.01-0.2,0.03c-0.11,0.03-0.21,0.09-0.29,0.17c-0.01,0.01-0.02,0.01-0.03,0.02c-1.08,1.13-2.45,1.93-3.97,2.31
			c-0.01,0-0.03,0.01-0.04,0.01c-0.21,0.05-0.37,0.18-0.46,0.35c-0.02,0.03-0.03,0.05-0.04,0.08c-0.03,0.05-0.04,0.11-0.05,0.16
			c-0.01,0.01-0.01,0.03-0.01,0.04l-0.2,2.29h-2.55l-0.19-2.28c0-0.01,0-0.03-0.01-0.04c-0.01-0.06-0.02-0.12-0.04-0.16
			c-0.01-0.03-0.03-0.05-0.04-0.08c-0.02-0.04-0.04-0.07-0.06-0.1c-0.01-0.02-0.02-0.04-0.04-0.04c-0.02-0.02-0.03-0.04-0.05-0.04
			c-0.09-0.08-0.2-0.14-0.31-0.17c-0.01,0-0.03-0.01-0.04-0.01c-1.51-0.39-2.89-1.19-3.97-2.33c-0.01-0.01-0.02-0.02-0.03-0.02
			c-0.05-0.05-0.09-0.08-0.14-0.11c-0.04-0.03-0.1-0.05-0.15-0.06c-0.06-0.02-0.13-0.03-0.2-0.03c0,0-0.01,0-0.02,0
			c-0.04,0-0.09,0.01-0.13,0.02c-0.08,0.01-0.16,0.04-0.23,0.09l-1.98,0.93l-1.28-2.21l1.53-1.06l0.31-0.22l0.04-0.03
			c0.04-0.02,0.06-0.04,0.09-0.08c0.03-0.02,0.05-0.04,0.07-0.08c0.1-0.13,0.14-0.28,0.14-0.43c0-0.07-0.01-0.13-0.03-0.21
			c0-0.01,0-0.01-0.01-0.02c-0.21-0.72-0.31-1.5-0.31-2.3c0-0.76,0.11-1.54,0.31-2.3c0.01-0.01,0.01-0.01,0.01-0.02
			c0.05-0.19,0.03-0.38-0.05-0.53c-0.02-0.05-0.04-0.08-0.07-0.12c-0.02-0.03-0.04-0.04-0.06-0.06c-0.03-0.03-0.05-0.05-0.09-0.08
			l-1.88-1.3l1.28-2.2l2.07,0.98c0.05,0.02,0.1,0.04,0.15,0.04c0.04,0.01,0.09,0.02,0.13,0.02c0.01,0,0.01,0,0.02,0
			c0.06,0,0.13-0.01,0.2-0.03c0.06-0.02,0.13-0.04,0.18-0.08c0.05-0.03,0.1-0.06,0.14-0.11c1.1-1.14,2.45-1.94,3.95-2.31h0.01
			c0.05-0.01,0.11-0.03,0.15-0.05c0.07-0.03,0.13-0.06,0.19-0.12c0.16-0.13,0.26-0.33,0.26-0.55l0.19-2.22h2.55l0.18,2.23
			c0,0.06,0.01,0.13,0.03,0.19c0.01,0.04,0.02,0.07,0.04,0.1c0.04,0.09,0.09,0.17,0.16,0.23c0.06,0.05,0.13,0.1,0.21,0.13
			c0,0,0.01,0,0.02,0.01c0.03,0.01,0.06,0.02,0.1,0.03c0.03,0.01,0.04,0.01,0.07,0.02c1.48,0.38,2.83,1.17,3.92,2.29
			c0.01,0.01,0.01,0.01,0.02,0.02c0.04,0.04,0.07,0.07,0.12,0.09c0.03,0.03,0.06,0.04,0.1,0.05c0.01,0.01,0.03,0.02,0.04,0.02
			c0.08,0.03,0.17,0.05,0.25,0.05c0.01,0,0.01,0,0.02,0c0.04,0,0.09,0,0.13-0.01c0.06-0.02,0.12-0.04,0.17-0.05l2.07-0.98l1.28,2.22
			L60.61,12.07z" fill="#000000" class="color000 svgShape"></path><path d="M52.31 9.21C52.31 9.21 52.31 9.21 52.31 9.21c-3.3 0-5.96 2.67-5.97 5.95 0 1.59.62 3.09 1.74 4.22 1.12 1.13 2.62 1.75 4.22 1.75 1.6 0 3.09-.62 4.22-1.74 1.12-1.12 1.74-2.62 1.75-4.21 0-1.6-.62-3.1-1.74-4.22C55.39 9.83 53.9 9.21 52.31 9.21zM55.49 18.37c-.82.82-1.95 1.33-3.2 1.33-2.5 0-4.53-2.04-4.53-4.54s2.04-4.52 4.53-4.52c.01 0 .01 0 .01 0 2.5 0 4.53 2.03 4.53 4.53C56.82 16.42 56.32 17.55 55.49 18.37zM35.47 29l-2.28 2.29-1.82-.41c.02-.29 0-.57-.04-.84.67-.92 1.11-2.42.66-3.52l.24-.24c.28-.29.28-.74 0-1.01-.28-.29-.74-.29-1.01 0l-.23.22c-1.06-.47-2.57-.09-3.49.55-.33-.06-.66-.09-1.01-.08-.04 0-.08 0-.13.01l-.41-1.83 2.29-2.28c.28-.28.28-.74 0-1.01-.29-.28-.74-.28-1.02 0l-2.56 2.56c-.17.18-.24.43-.19.66l.48 2.16c-.06.02-.13.05-.19.07-.31-.11-.65-.1-.96.03l-.01.01-1.19-1.19c-.13-.12-.3-.2-.47-.21l-3.7-.22c-.4-.03-.74.28-.76.67-.02.4.28.74.67.76l3.43.21.6.6c-.95.48-1.76 1.01-2.42 1.58l-1.12-1.11c-.28-.29-.74-.29-1.01 0l-3.49 3.48c-.28.28-.28.74 0 1.01.14.14.32.22.51.22.18 0 .37-.07.5-.22l2.98-2.98.65.64c-1.5 1.88-1.78 4.19-.84 6.91.4 1.15 1.28 2.07 2.41 2.51 1.14.45 2.22.66 3.22.66 1.46 0 2.79-.47 3.96-1.41l.69.69-2.98 2.98c-.28.28-.28.73 0 1.01.14.13.32.21.51.21.18 0 .37-.07.5-.21l3.49-3.49c.28-.28.28-.74 0-1.01l-1.18-1.18c.58-.66 1.12-1.45 1.62-2.39l.62.62.22 3.43c.02.38.34.67.72.67h.04c.4-.03.7-.37.67-.76l-.22-3.7c-.01-.17-.08-.34-.21-.47l-1.2-1.2c.04-.22.04-.45-.04-.66.07-.15.13-.31.17-.47l2.14.48c.05.02.11.02.16.02.19 0 .37-.07.5-.21l2.57-2.56c.28-.29.28-.74 0-1.02C36.2 28.72 35.75 28.72 35.47 29zM27.28 36.69c-.02.01-.04.02-.05.04-.01.01-.03.03-.03.04-1.66 1.56-3.68 1.84-6.16.87-.75-.3-1.3-.87-1.56-1.63-.82-2.39-.55-4.31.85-5.87.04-.02.08-.05.12-.09.04-.04.08-.09.11-.14.31-.32.68-.63 1.1-.91-.37.67-.58 1.42-.64 2.19-.09 1.39.37 2.69 1.3 3.66.9.93 2.13 1.45 3.47 1.45h.13c.75-.02 1.49-.2 2.17-.52C27.83 36.11 27.56 36.41 27.28 36.69zM28.64 33.66c-.77.74-1.75 1.15-2.76 1.18-.98.03-1.89-.33-2.53-1.01-.65-.67-.96-1.58-.9-2.57.06-1.01.52-1.97 1.29-2.7.22-.21.45-.4.7-.55.58 1.3.48 2.66-.32 4.14-.15.27-.11.61.11.84.22.23.56.29.84.15 1.52-.74 2.87-.8 4.17-.18C29.06 33.21 28.87 33.45 28.64 33.66zM29.81 31.67c-1.19-.57-2.46-.71-3.77-.4.37-1.3.28-2.57-.25-3.8.05-.01.1-.02.15-.03.19-.04.38-.05.57-.05h.09c.95 0 1.81.35 2.43 1.01C29.86 29.26 30.11 30.49 29.81 31.67zM30.65 28.14c-.17-.26-.36-.51-.58-.75-.22-.23-.48-.44-.74-.62.51-.12 1-.1 1.22.13l.01.01C30.78 27.15 30.78 27.64 30.65 28.14z" fill="#000000" class="color000 svgShape"></path></svg></g></svg>