<svg id="SvgjsSvg1001" width="288" height="288" xmlns="http://www.w3.org/2000/svg" version="1.1" xmlns:xlink="http://www.w3.org/1999/xlink" xmlns:svgjs="http://svgjs.com/svgjs"><defs id="SvgjsDefs1002"></defs><g id="SvgjsG1008"><svg xmlns="http://www.w3.org/2000/svg" viewBox="0 0 26 26" width="288" height="288"><g transform="translate(0 -1026.362)" fill="#000000" class="color000 svgShape"><circle cx="13" cy="1039.362" r="13" fill="#3b4449" fill-rule="evenodd" class="color424242 svgShape"></circle><path fill="#212628" d="M14.379 25.912a13 13 0 0 0 .83-.101 13 13 0 0 0 1.268-.286 13 13 0 0 0 1.234-.408 13 13 0 0 0 1.185-.531 13 13 0 0 0 1.127-.647 13 13 0 0 0 1.057-.755 13 13 0 0 0 .977-.858 13 13 0 0 0 .886-.951 13 13 0 0 0 .786-1.035 13 13 0 0 0 .68-1.108 13 13 0 0 0 .566-1.17 13 13 0 0 0 .445-1.22 13 13 0 0 0 .32-1.26 13 13 0 0 0 .196-1.285 13 13 0 0 0 .013-.264l-7.037-7.037h-3.42L13.5 5.004h-1v1.992H7.111l-1.709 8H5v.5c0 .201.032.395.078.586.014.059.034.114.053.172.044.136.098.268.164.394.026.05.05.1.08.149.092.151.2.293.322.422.014.014.023.032.037.047l.002.002 8.643 8.644z" color="#000" font-family="sans-serif" font-weight="400" transform="translate(0 1026.362)" style="line-height:normal;text-indent:0;text-align:start;text-decoration-line:none;text-decoration-style:solid;text-decoration-color:#000;text-transform:none;block-progression:tb;isolation:auto;mix-blend-mode:normal" class="color1f212a svgShape"></path><path fill="#ffffff" d="M7.5.004v1.992H2.111l-1.709 8H0v.5a2.502 2.502 0 0 0 5 0v-.5h-.328l-1.658-7H7.5v12h-2v1h5v-1h-2v-12h4.49l-1.365 7H11v.5a2.502 2.502 0 0 0 5 0v-.5h-.549l-1.539-8H8.5V.004h-1zM2.477 5.068l1.168 4.928H1.424l1.053-4.928zm11.068.305.889 4.623h-1.791l.902-4.623zM1.289 10.996H3.71c-.124.293-.174.636-.46.8a1.498 1.498 0 0 1-1.5 0c-.286-.164-.336-.507-.46-.8zm11 0H14.71c-.124.293-.174.636-.46.8a1.498 1.498 0 0 1-1.5 0c-.286-.164-.336-.507-.46-.8z" color="#000" font-family="sans-serif" font-weight="400" overflow="visible" transform="translate(5 1031.362)" style="line-height:normal;text-indent:0;text-align:start;text-decoration-line:none;text-decoration-style:solid;text-decoration-color:#000;text-transform:none;block-progression:tb;isolation:auto;mix-blend-mode:normal" class="colorfff svgShape"></path></g></svg></g></svg>