<svg id="SvgjsSvg1058" width="288" height="288" xmlns="http://www.w3.org/2000/svg" version="1.1" xmlns:xlink="http://www.w3.org/1999/xlink" xmlns:svgjs="http://svgjs.com/svgjs"><defs id="SvgjsDefs1059"></defs><g id="SvgjsG1060"><svg xmlns="http://www.w3.org/2000/svg" viewBox="0 0 26 26" width="288" height="288"><g transform="translate(0 -1026.362)" fill="#2f89fc" class="color000 svgShape"><circle cx="13" cy="1039.362" r="13" fill="#40514e" fill-rule="evenodd" class="color424242 svgShape"></circle><path style="line-height:normal;text-indent:0;text-align:start;text-decoration-line:none;text-decoration-style:solid;text-decoration-color:#000;text-transform:none;block-progression:tb;isolation:auto;mix-blend-mode:normal" fill="#f5f5f5" d="M7.5.004v1.992H2.111l-1.709 8H0v.5a2.502 2.502 0 0 0 5 0v-.5h-.328l-1.658-7H7.5v12h-2v1h5v-1h-2v-12h4.49l-1.365 7H11v.5a2.502 2.502 0 0 0 5 0v-.5h-.549l-1.539-8H8.5V.004h-1zM2.477 5.068l1.168 4.928H1.424l1.053-4.928zm11.068.305.889 4.623h-1.791l.902-4.623zM1.289 10.996H3.71c-.124.293-.174.636-.46.8a1.498 1.498 0 0 1-1.5 0c-.286-.164-.336-.507-.46-.8zm11 0H14.71c-.124.293-.174.636-.46.8a1.498 1.498 0 0 1-1.5 0c-.286-.164-.336-.507-.46-.8z" color="#000" font-family="sans-serif" font-weight="400" overflow="visible" transform="translate(5 1031.362)" class="colorfff svgShape"></path></g></svg></g></svg>