<svg xmlns="http://www.w3.org/2000/svg" data-name="Layer 1" viewBox="0 0 64 64" id="globalization"><circle cx="32" cy="20" r="17" fill="#4b9d93"></circle><path fill="#d8e0e6" d="M41.05 5.61a29.545 29.545 0 0 1-3.75.75A39.914 39.914 0 0 1 32 6.7a39.914 39.914 0 0 1-5.3-.34 29.545 29.545 0 0 1-3.75-.75 17 17 0 0 1 18.1 0zM41.05 34.39a17 17 0 0 1-18.1 0 27.89 27.89 0 0 1 3.75-.75 41.479 41.479 0 0 1 10.6 0A27.89 27.89 0 0 1 41.05 34.39z"></path><path fill="#ffdbac" d="M57 46l-4 6-5.109 3.406A2 2 0 0 0 47 57.07V61H38l1-8 2-6 4.911-6.548a1.918 1.918 0 0 1 2.6-.445h0a1.919 1.919 0 0 1 .6 2.548L46 48l4-2 3-3 4.58-9.159A1.52 1.52 0 0 1 58.94 33h0a1.521 1.521 0 0 1 1.454 1.969zM7 46l4 6 5.109 3.406A2 2 0 0 1 17 57.07V61h9l-1-8-2-6-4.911-6.548a1.918 1.918 0 0 0-2.6-.445h0a1.919 1.919 0 0 0-.6 2.548L18 48l-4-2-3-3L6.42 33.841A1.52 1.52 0 0 0 5.06 33h0a1.521 1.521 0 0 0-1.454 1.969z"></path><path fill="#d98285" d="M9.349,30.742A45.05,45.05,0,0,0,48.42,15.187l4.186-4.9,2.917,2.767L56.181,3,46.166,4.165,49.132,6.99A47.459,47.459,0,0,1,9.793,21.365Z"></path><path d="M58.94 32a2.506 2.506 0 0 0-2.255 1.394l-4.507 9.013-2.771 2.771-.9.451 1.472-2.577a2.918 2.918 0 0 0-4.868-3.2L40.2 46.4a.987.987 0 0 0-.148.284l-2 6a.906.906 0 0 0-.044.192l-1 8A1 1 0 0 0 38 62h9a1 1 0 0 0 1-1V57.07a1 1 0 0 1 .445-.832l5.11-3.406a1 1 0 0 0 .277-.277l4-6a.963.963 0 0 0 .124-.261l3.395-11.031A2.521 2.521 0 0 0 58.94 32zm.5 2.675L56.087 45.566l-3.808 5.713-4.943 3.295A2.993 2.993 0 0 0 46 57.07V60H39.133l.847-6.777L41.9 47.47l4.814-6.417a.918.918 0 0 1 1.532 1.006L45.132 47.5A1 1 0 0 0 46.447 48.9l4-2a1 1 0 0 0 .26-.188l3-3a1 1 0 0 0 .188-.26l4.579-9.159A.516.516 0 0 1 58.94 34a.522.522 0 0 1 .5.675zM25.948 52.684l-2-6A.987.987 0 0 0 23.8 46.4l-4.911-6.548a2.918 2.918 0 0 0-4.868 3.2l1.472 2.578-.9-.451-2.771-2.771L7.315 33.394a2.522 2.522 0 0 0-4.666 1.869L6.044 46.294a.963.963 0 0 0 .124.261l4 6a1 1 0 0 0 .277.277l5.11 3.406A1 1 0 0 1 16 57.07V61a1 1 0 0 0 1 1h9a1 1 0 0 0 .992-1.124l-1-8A.906.906 0 0 0 25.948 52.684zM18 60V57.07a2.993 2.993 0 0 0-1.336-2.5l-4.943-3.295L7.913 45.566 4.562 34.675A.522.522 0 0 1 5.06 34a.517.517 0 0 1 .466.288l4.579 9.159a1 1 0 0 0 .188.26l3 3a1 1 0 0 0 .26.188l4 2A1 1 0 0 0 18.868 47.5l-3.111-5.446a.918.918 0 0 1 1.532-1.006L22.1 47.47l1.917 5.753L24.867 60zM47.2 29.628A17.844 17.844 0 0 0 50 20a18.1 18.1 0 0 0-.568-4.458l3.251-3.806 2.152 2.042a1 1 0 0 0 1.686-.66L57.18 3.065a1 1 0 0 0-1.114-1.058L46.051 3.172a1 1 0 0 0-.574 1.717l2.231 2.127c-.569.568-1.155 1.117-1.751 1.652A17.99 17.99 0 0 0 14 20c0 .2.008.4.015.605-1.371-.022-2.744-.087-4.116-.234a1 1 0 0 0-1.1.947L8.35 30.7a1 1 0 0 0 .892 1.041A45.86 45.86 0 0 0 14.17 32c1.428 0 2.846-.08 4.257-.212A17.965 17.965 0 0 0 47.2 29.628zM45.937 27.84A27.169 27.169 0 0 0 41.188 26.5a29.7 29.7 0 0 0 .547-3.682Q42.9 21.947 44.006 21h3.959A15.845 15.845 0 0 1 45.937 27.84zM46.194 19q.808-.785 1.585-1.609A15.751 15.751 0 0 1 47.965 19zM40.844 6.685a15.961 15.961 0 0 1 3.591 3.279Q42.775 11.329 41 12.53c-.005-.02-.009-.042-.014-.062A22.188 22.188 0 0 0 38.93 7.1Q39.933 6.918 40.844 6.685zm-1.961 7.2A46.884 46.884 0 0 1 33 16.894V14.33A49.155 49.155 0 0 0 38.883 13.886zM33 12.33V7.664c1.3-.028 2.56-.108 3.777-.247a18.119 18.119 0 0 1 1.964 4.47A47.261 47.261 0 0 1 33 12.33zM32 4a15.949 15.949 0 0 1 6.1 1.215c-.311.052-.609.112-.932.157a41.633 41.633 0 0 1-10.332 0c-.326-.045-.626-.106-.939-.158A15.947 15.947 0 0 1 32 4zM27.223 7.417c1.215.139 2.479.219 3.777.248V12.33a47.261 47.261 0 0 1-5.741-.443A18.139 18.139 0 0 1 27.223 7.417zM31 14.33v3.351a47.006 47.006 0 0 1-6.86 1.967 29.478 29.478 0 0 1 .622-5.814A48.978 48.978 0 0 0 31 14.33zM23.16 6.686q.909.232 1.91.416a21.542 21.542 0 0 0-1.794 4.452 27.354 27.354 0 0 1-4.087-1.1A15.935 15.935 0 0 1 23.16 6.686zm-5.094 5.473A27.913 27.913 0 0 0 22.79 13.5 31.731 31.731 0 0 0 22.13 20v.021a46.434 46.434 0 0 1-6.115.574c-.008-.2-.015-.4-.015-.595A15.937 15.937 0 0 1 18.066 12.159zm-7.673 17.68l.349-7.378A48.827 48.827 0 0 0 49.854 7.682a1 1 0 0 0-.033-1.415L48.4 4.912l6.7-.78-.44 6.727L53.3 9.56a1 1 0 0 0-1.449.076l-4.187 4.9A44.02 44.02 0 0 1 10.393 29.839zm29.162-5.491c-.089.616-.209 1.216-.336 1.813-.715-.105-1.44-.2-2.18-.269C37.892 25.4 38.733 24.892 39.555 24.348zM31 28.805v3.514c-1.307.029-2.583.115-3.8.255a15.173 15.173 0 0 1-1.13-2.151A45.909 45.909 0 0 0 31 28.805zm-7.853 4.5A15.934 15.934 0 0 1 20.875 31.5c1.088-.161 2.171-.348 3.241-.585a18.3 18.3 0 0 0 .95 1.979Q24.057 33.072 23.147 33.308zM32 36a15.986 15.986 0 0 1-6.1-1.227 39.929 39.929 0 0 1 12.236.007A16.015 16.015 0 0 1 32 36zm4.785-3.427c-1.21-.139-2.482-.225-3.785-.254V27.956c.2-.09.405-.179.606-.273a46.232 46.232 0 0 1 5.124.448A17.73 17.73 0 0 1 36.785 32.573zm4.091.741q-.916-.238-1.937-.424a21.211 21.211 0 0 0 1.779-4.446 26.416 26.416 0 0 1 4.112 1.1A15.95 15.95 0 0 1 40.876 33.314z"></path></svg>