<svg xmlns="http://www.w3.org/2000/svg" viewBox="0 0 32 32" id="science"><g ><path fill="#ae95da" d="M29.5,16c0-1.64-1.45-3.07-4.1-4.1,1.15-2.61,1.16-4.65,0-5.79S22.21,5,19.6,6.1c-1-2.65-2.47-4.1-4.1-4.1s-3.07,1.45-4.1,4.1C8.79,5,6.75,4.94,5.61,6.1s-1.16,3.19,0,5.8C3,12.93,1.5,14.37,1.5,16S3,19.07,5.6,20.1c-1.15,2.61-1.16,4.65,0,5.79A3.18,3.18,0,0,0,8,26.77a8.86,8.86,0,0,0,3.44-.87c1,2.65,2.46,4.1,4.1,4.1s3.07-1.45,4.1-4.1a8.86,8.86,0,0,0,3.44.87,3.21,3.21,0,0,0,2.36-.87c1.16-1.16,1.15-3.2,0-5.8C28.05,19.07,29.5,17.63,29.5,16Z"/><path fill="#231f20" d="M30.5,16c0-1.64-1.45-3.07-4.1-4.1,1.15-2.61,1.16-4.65,0-5.79S23.21,5,20.6,6.1c-1-2.65-2.47-4.1-4.1-4.1s-3.07,1.45-4.1,4.1C9.79,5,7.75,4.94,6.61,6.1s-1.16,3.19,0,5.8C4,12.93,2.5,14.37,2.5,16S4,19.07,6.6,20.1c-1.15,2.61-1.16,4.65,0,5.79A3.18,3.18,0,0,0,9,26.77a8.86,8.86,0,0,0,3.44-.87c1,2.65,2.46,4.1,4.1,4.1s3.07-1.45,4.1-4.1a8.86,8.86,0,0,0,3.44.87,3.21,3.21,0,0,0,2.36-.87c1.16-1.16,1.15-3.2,0-5.8C29.05,19.07,30.5,17.63,30.5,16ZM18.14,22.19l.68-.58.9-.07c-.09.51-.19,1-.31,1.48C19,22.76,18.57,22.49,18.14,22.19Zm-3.28,0c-.42.3-.85.57-1.27.83-.12-.48-.22-1-.31-1.48l.9.07Zm-3.9-3c-.51-.09-1-.19-1.48-.31.26-.42.53-.85.83-1.27l.58.68C10.91,18.63,10.94,18.93,11,19.22Zm3.9-9.41-.68.58-.9.07c.09-.51.19-1,.31-1.48C14,9.24,14.44,9.51,14.86,9.81Zm3.28,0c.42-.3.85-.57,1.27-.83.12.48.22,1,.31,1.48l-.9-.07Zm1.36,9.74-1.15.08a1,1,0,0,0-.61.26c-.36.33-.73.64-1.1.94l-.14.11-.14-.11c-.37-.3-.74-.61-1.1-.94a1,1,0,0,0-.61-.26l-1.15-.08-.25,0-.25,0,0-.25A2.28,2.28,0,0,0,13,19c0-.36-.06-.73-.08-1.14a1,1,0,0,0-.26-.61c-.33-.36-.64-.74-.95-1.11l-.1-.13.1-.13c.31-.37.62-.75.95-1.11a1,1,0,0,0,.26-.61c0-.41.05-.78.08-1.15a1.94,1.94,0,0,0,0-.24l0-.26.26,0,.24,0,1.15-.08a1,1,0,0,0,.61-.26c.36-.33.74-.64,1.11-.95l.13-.1.13.1c.37.31.75.62,1.11.95a1,1,0,0,0,.61.26l1.15.08.24,0,.26,0,0,.26a1.94,1.94,0,0,0,0,.24c0,.37.06.74.08,1.15a1,1,0,0,0,.26.61c.33.36.64.74.95,1.11l.1.13-.1.13c-.31.37-.62.74-.95,1.11a1,1,0,0,0-.26.61c0,.41-.05.78-.08,1.14a2.28,2.28,0,0,0,0,.26l0,.25-.25,0Zm-8.61-5.87-.58.68c-.3-.42-.57-.85-.83-1.27.48-.12,1-.22,1.48-.31C10.94,13.07,10.91,13.37,10.89,13.68Zm11.22,4.64.58-.68c.3.42.57.85.83,1.27-.48.12-1,.22-1.48.31C22.06,18.93,22.09,18.63,22.11,18.32Zm.58-4-.58-.68c0-.31-.05-.61-.07-.9.51.09,1,.19,1.48.31C23.26,13.51,23,13.94,22.69,14.36ZM25,7.52c.44.44.42,1.75-.5,3.76a25.14,25.14,0,0,0-2.7-.57A24.63,24.63,0,0,0,21.22,8C23.23,7.09,24.54,7.07,25,7.52ZM16.5,4c.58,0,1.5.82,2.31,3A25.44,25.44,0,0,0,16.5,8.53,25.44,25.44,0,0,0,14.19,7C15,4.82,15.92,4,16.5,4ZM8,7.51a1.33,1.33,0,0,1,1-.28,7.14,7.14,0,0,1,2.8.79c-.22.84-.41,1.74-.56,2.69a24.63,24.63,0,0,0-2.7.57C7.59,9.27,7.57,8,8,7.51ZM4.5,16c0-.58.82-1.5,3-2.31A25.44,25.44,0,0,0,9,16a25.44,25.44,0,0,0-1.52,2.31C5.32,17.5,4.5,16.58,4.5,16ZM8,24.48c-.44-.44-.42-1.75.5-3.76a25.14,25.14,0,0,0,2.7.57,24.63,24.63,0,0,0,.57,2.7C9.77,24.91,8.46,24.93,8,24.48ZM16.5,28c-.58,0-1.49-.82-2.31-3a25.44,25.44,0,0,0,2.31-1.52A24.73,24.73,0,0,0,18.81,25C18,27.18,17.08,28,16.5,28ZM25,24.48h0c-.44.44-1.75.42-3.76-.5a25.14,25.14,0,0,0,.57-2.7,24.63,24.63,0,0,0,2.7-.57C25.41,22.73,25.43,24,25,24.48Zm.5-6.17A25.44,25.44,0,0,0,24,16a25.44,25.44,0,0,0,1.52-2.31c2.19.81,3,1.73,3,2.31S27.68,17.5,25.49,18.31Z"/><path fill="#231f20" d="M16.5,12.74A3.26,3.26,0,1,0,19.76,16,3.26,3.26,0,0,0,16.5,12.74Zm0,4.52A1.26,1.26,0,1,1,17.76,16,1.27,1.27,0,0,1,16.5,17.26Z"/></g></svg>