<svg xmlns="http://www.w3.org/2000/svg" width="48" height="48" id="communication"><g transform="translate(0 -1004.362)"><circle cx="24" cy="1028.362" r="24" fill="#3a6c87"/><path style="line-height:normal;text-indent:0;text-align:start;text-decoration-line:none;text-decoration-style:solid;text-decoration-color:#000;text-transform:none;block-progression:tb;isolation:auto;mix-blend-mode:normal" fill="#2f4b6c" d="M29.088 47.424a24 24 0 0 0 1.332-.299 24 24 0 0 0 2.277-.756 24 24 0 0 0 2.19-.98 24 24 0 0 0 2.08-1.194 24 24 0 0 0 1.951-1.394 24 24 0 0 0 1.803-1.584 24 24 0 0 0 1.634-1.756 24 24 0 0 0 1.454-1.91 24 24 0 0 0 1.254-2.045 24 24 0 0 0 1.042-2.16 24 24 0 0 0 .823-2.254 24 24 0 0 0 .508-1.987l-10.12-10.119a2.717 2.717 0 0 0 1.174-2.232 2.717 2.717 0 0 0-2.717-2.717 2.717 2.717 0 0 0-2.234 1.172l-7.15-4.13a2.717 2.717 0 0 0 .027-.362A2.717 2.717 0 0 0 23.697 8a2.717 2.717 0 0 0-2.717 2.717 2.717 2.717 0 0 0 .084.658l-6.615 3.822a2.717 2.717 0 0 0-2.222-1.16 2.717 2.717 0 0 0-2.717 2.717 2.717 2.717 0 0 0 2.2 2.668v7.95a2.717 2.717 0 0 0-2.2 2.665 2.717 2.717 0 0 0 2.717 2.717 2.717 2.717 0 0 0 1.638-.553l15.223 15.223zm-3.024-35.377 6.112 6.111-2.764 1.565-6.369-6.37a2.717 2.717 0 0 0 .654.08 2.717 2.717 0 0 0 2.367-1.386zm-11.2 4.066 2.991 2.992-2.982-1.751a2.717 2.717 0 0 0 .07-.6 2.717 2.717 0 0 0-.08-.64zm-.39 2.166 6.557 6.557c-.409.238-.893.453-1.427.682-.18.076-.359.177-.54.265l-6.355-6.355a2.717 2.717 0 0 0 1.766-1.149zm.415 12.27 2.58 2.58-2.92-1.688a2.717 2.717 0 0 0 .34-.892z" color="#000"  transform="translate(0 1004.362)"/><path style="line-height:normal;text-indent:0;text-align:start;text-decoration-line:none;text-decoration-style:solid;text-decoration-color:#000;text-transform:none;block-progression:tb;isolation:auto;mix-blend-mode:normal" fill="#fff" d="M15.697 0a2.717 2.717 0 0 0-2.717 2.717 2.717 2.717 0 0 0 .084.658L6.45 7.197a2.717 2.717 0 0 0-2.222-1.16A2.717 2.717 0 0 0 1.51 8.754a2.717 2.717 0 0 0 2.2 2.668v7.95a2.717 2.717 0 0 0-2.2 2.665 2.717 2.717 0 0 0 2.717 2.717 2.717 2.717 0 0 0 1.638-.553l7.266 4.2a2.717 2.717 0 0 0-.15.882A2.717 2.717 0 0 0 15.696 32a2.717 2.717 0 0 0 2.719-2.717 2.717 2.717 0 0 0-.072-.6l7.779-4.494a2.717 2.717 0 0 0 1.65.565 2.717 2.717 0 0 0 2.717-2.717 2.717 2.717 0 0 0-2.232-2.67v-7.94a2.717 2.717 0 0 0 2.232-2.673 2.717 2.717 0 0 0-2.717-2.717A2.717 2.717 0 0 0 25.54 7.21l-7.15-4.13a2.717 2.717 0 0 0 .027-.362A2.717 2.717 0 0 0 15.697 0Zm2.367 4.047 7.069 4.082a2.717 2.717 0 0 0-.076.625 2.717 2.717 0 0 0 .132.828l-5.17 2.932v.828l-.001.015c-.004.117-.03.223-.045.334l5.69-3.226a2.717 2.717 0 0 0 1.595.957v7.95a2.717 2.717 0 0 0-1.63 1.003l-1.823-1.072c.181.415.311.874.377 1.38l.988.583a2.717 2.717 0 0 0-.113.771 2.717 2.717 0 0 0 .386 1.39l-7.498 4.333a2.717 2.717 0 0 0-2.248-1.194 2.717 2.717 0 0 0-2.074.963l-7.074-4.088a2.717 2.717 0 0 0 .394-1.404 2.717 2.717 0 0 0-.148-.871l1.03-.584c.07-.508.212-.962.398-1.377l-1.918 1.088a2.717 2.717 0 0 0-1.596-.926v-7.94a2.717 2.717 0 0 0 1.766-1.148l5.53 3.25c-.004-.046-.017-.087-.02-.134l-.003-.034v-1.006L6.873 9.354a2.717 2.717 0 0 0 .07-.6 2.717 2.717 0 0 0-.08-.64l6.621-3.827a2.717 2.717 0 0 0 2.213 1.147 2.717 2.717 0 0 0 2.367-1.387zm-5.443 3.808a.338.338 0 0 0-.242.323v2.3c0 .455.238.86.603 1.096v1.754c.074 1.046.476 1.777 1.038 2.227-.066.518-.289.818-.66 1.093-.44.326-1.081.581-1.756.87-.676.288-1.39.633-1.942 1.244-.551.61-.906 1.466-.906 2.699v.225l.19.076c4.64 2.68 8.931 2.99 14.11 0l.188-.076v-.225c0-1.204-.358-2.052-.906-2.643-.548-.59-1.257-.905-1.924-1.187-.667-.282-1.3-.534-1.734-.87-.426-.328-.67-.706-.678-1.433.586-.485.992-1.167 1.018-2v-2.943c0-1.054-.798-1.924-1.811-1.924h-3.623c-.207 0-.378-.034-.453-.076-.075-.042-.094-.05-.094-.21.002-.202-.223-.372-.418-.32zm3.381 8.807c.488 0 .88.396.88.885a.92.92 0 0 1-.265.648s-.22.107-.125.46l.717 4.003-1.207.604-1.186-.612.729-3.996c.095-.292-.117-.442-.13-.459a.851.851 0 0 1-.298-.648c0-.489.396-.885.885-.885z" color="#000"  transform="translate(8 1012.362)"/></g></svg>